<?xml version="1.0" encoding="utf-8"?>
<!-- Generator: Adobe Illustrator 19.1.0, SVG Export Plug-In . SVG Version: 6.00 Build 0)  -->
<svg version="1.1" id="Layer_1" xmlns="http://www.w3.org/2000/svg" xmlns:xlink="http://www.w3.org/1999/xlink" x="0px" y="0px"
	 viewBox="0 0 841.9 595.3" style="enable-background:new 0 0 841.9 595.3;" xml:space="preserve">
<style type="text/css">
	.st0{fill:#A3814F;}
</style>
<g>
	<g>
		<g>
			<g>
				<path class="st0" d="M506.2,215.6l-14.3-0.7l3.9-12.1c0,0,0.8-2.2,0.9-2.5c2.1-4.3,6.9-6.7,11.8-5.7v0c5.9,1.1,9.7,6.7,8.6,12.5
					v0C516.1,212.1,511.5,215.7,506.2,215.6z"/>
				<path class="st0" d="M432.6,135.8c0.1,0.3,0.4,0.3,0.5,0l3.9-19.9c0.1-0.5,0.1-1.1,0-1.6c-0.5-2.5-3.1-4.1-5.7-3.1
					c-2,0.7-3,2.9-2.6,5L432.6,135.8z"/>
				<path class="st0" d="M369.2,220.9l18.7,3l3-18.7c1.9-12.2-6.4-23.7-18.7-25.7l-18.7-3l-3,18.7C348.6,207.5,357,219,369.2,220.9z
					"/>
				<path class="st0" d="M369,159l16,11.5l5.6-18.9c2-6.6-1.1-13.6-7.3-16.6v0c-7-3.4-15.4-0.5-18.8,6.4
					C361.5,147.5,363.4,154.9,369,159z"/>
				<path class="st0" d="M429.4,136.2c0.2,0.2,0.5-0.1,0.4-0.3l-9.1-18.1c-0.2-0.5-0.6-0.9-1-1.3c-1.9-1.7-5-1.3-6.4,1
					c-1.1,1.8-0.6,4.2,1,5.6L429.4,136.2z"/>
				<path class="st0" d="M546.2,236.8l-16.1,11.5l16.1,11.5c5.6,4,13.2,3.3,18.1-1.5c5.5-5.5,5.5-14.4,0-19.9
					C559.4,233.4,551.8,232.8,546.2,236.8z"/>
				<path class="st0" d="M520.1,248.9l8.6-16.8l-16.8-8.6c-11-5.6-24.6-1.2-30.2,9.8l-8.6,16.8l16.8,8.6
					C500.9,264.3,514.4,259.9,520.1,248.9z"/>
				<path class="st0" d="M497.9,190.2l18-8.2c6.2-2.9,9.5-9.8,7.7-16.4c-2-7.5-9.7-12-17.2-9.9h0c-6.6,1.8-11,8.1-10.4,14.9
					L497.9,190.2z"/>
				<circle class="st0" cx="479.3" cy="268.1" r="5.1"/>
				<path class="st0" d="M326,182l18,8.2l1.9-19.7c0.7-6.8-3.7-13.1-10.4-14.9c-7.5-2-15.2,2.4-17.2,9.9
					C316.5,172.2,319.8,179.1,326,182z"/>
				<path class="st0" d="M540.8,221.6c6.8,0.7,13.1-3.7,14.9-10.4c2-7.5-2.4-15.2-9.9-17.2c-6.6-1.8-13.6,1.5-16.4,7.7l-8.2,18
					L540.8,221.6z"/>
				<path class="st0" d="M533.4,274.4c4.1-4.2,4.1-10.9-0.2-15.2c-3.5-3.5-8.8-4.2-13-1.8c-0.3,0.2-2.2,1.6-2.2,1.6l-10,7.8
					l11.5,8.6C523.9,278.5,529.8,278.1,533.4,274.4z"/>
				<path class="st0" d="M436.5,136.2l15.3-13.3c0.4-0.4,0.8-0.8,1-1.3c1.1-2.2,0.1-5-2.3-5.9c-2.1-0.8-4.4,0.3-5.4,2.3l-9,17.9
					C436,136.1,436.3,136.4,436.5,136.2z"/>
				<circle class="st0" cx="466" cy="233.2" r="5.1"/>
				<path class="st0" d="M463.5,266.3c-3.1-19.6-16.7-38.2-30-55.4c-15.4-19.9-10.6-33.2-4.1-40.3c0,0,14.7,6.6,26.9-6.3l20.5,1
					c0,0-10.7-7.1-17.8-8.8c0,0-11.3-16.5-27.2-15.5c-17.9,1.1-33.6,18.2-35.1,39.6c-1.5,21.4,10.6,43.4,23.7,59.2
					c9.5,11.4,25.2,29.9,29.5,47c-1.5-4.8-8.5-11.4-28-33.1c-13.1-14.7-18.9-24.8-21.4-30.4c-1.6,0.9-20.9,12.1-12.8,44
					c2.2,8.6,15.2,40.9,39.7,62.2C442.2,320.8,470.4,299.7,463.5,266.3L463.5,266.3z"/>
				<circle class="st0" cx="373.5" cy="233.2" r="5.1"/>
				<path class="st0" d="M491.3,195.3l-3-18.7l-18.7,3c-12.2,1.9-20.6,13.4-18.7,25.7l3,18.7l18.7-3
					C484.9,219,493.2,207.5,491.3,195.3z"/>
				<path class="st0" d="M549.1,282.6l-19.7,1.9l8.2,18c2.9,6.2,9.8,9.5,16.4,7.7h0c7.5-2,12-9.7,9.9-17.2
					C562.3,286.3,556,281.9,549.1,282.6z"/>
				<path class="st0" d="M330.1,223.5l-16.8,8.6l8.6,16.8c5.6,11,19.1,15.4,30.2,9.8l16.8-8.6l-8.6-16.8
					C354.6,222.2,341.1,217.9,330.1,223.5z"/>
				<path class="st0" d="M489.9,274l-16.8,8.6l8.6,16.8c5.6,11,19.1,15.4,30.2,9.8l16.8-8.6l-8.6-16.8
					C514.4,272.7,500.9,268.3,489.9,274z"/>
				<path class="st0" d="M344.6,200c-2.1-4.3-6.9-6.7-11.8-5.7h0c-5.9,1.1-9.7,6.7-8.6,12.5c1,5.1,5.6,8.7,10.9,8.6l14.3-0.7
					l-3.9-12.1C345.5,202.5,344.8,200.3,344.6,200z"/>
				<path class="st0" d="M295.7,259.7l16.1-11.5l-16.1-11.5c-5.6-4-13.2-3.3-18.1,1.5c-5.5,5.5-5.5,14.4,0,19.9
					C282.5,263,290.1,263.7,295.7,259.7z"/>
				<path class="st0" d="M307.5,274.4c3.7,3.7,9.5,4.1,13.8,1l11.5-8.6l-10-7.8c0,0-1.9-1.4-2.2-1.6c-4.1-2.4-9.5-1.7-13,1.8
					C303.4,263.5,303.4,270.3,307.5,274.4z"/>
				<circle class="st0" cx="360.2" cy="268.1" r="5.1"/>
				<path class="st0" d="M301.1,221.6l19.7-1.9l-8.2-18c-2.9-6.2-9.8-9.5-16.4-7.7c-7.5,2-12,9.7-9.9,17.2
					C287.9,217.9,294.2,222.2,301.1,221.6z"/>
				<path class="st0" d="M321.8,283.8l-8.6,16.8l16.8,8.6c11,5.6,24.6,1.2,30.2-9.8l8.6-16.8L352,274
					C341,268.3,327.4,272.7,321.8,283.8z"/>
				<path class="st0" d="M277.8,292.9c-2,7.5,2.4,15.2,9.9,17.2c6.6,1.8,13.6-1.5,16.4-7.7l8.2-18l-19.7-1.9
					C285.9,281.9,279.6,286.3,277.8,292.9z"/>
				<path class="st0" d="M484.9,147.9L484.9,147.9c-2-7.5-9.8-11.9-17.3-9.9c-4.5,1.2-7.9,4.5-9.4,8.6l22.3,15.6
					C484.5,158.7,486.3,153.2,484.9,147.9z"/>
			</g>
			<g>
				<g>
					<path class="st0" d="M219.5,428.3c0,1.7,0,3.1,0.1,4.3c0.1,1.2,0.3,2.2,0.7,3c0.4,0.8,1,1.4,1.9,1.8c0.9,0.4,2.1,0.6,3.7,0.6
						v1.2h-20.1v-1.2c1.6,0,2.8-0.2,3.7-0.6c0.9-0.4,1.5-1,1.9-1.8c0.4-0.8,0.6-1.8,0.7-3c0.1-1.2,0.1-2.6,0.1-4.3v-52.1
						c0-1.7,0-3.1-0.1-4.3c-0.1-1.2-0.3-2.2-0.7-3c-0.4-0.8-1-1.4-1.9-1.8c-0.9-0.4-2.1-0.6-3.7-0.6v-1.2h20.1v1.2
						c-1.6,0-2.8,0.2-3.7,0.6c-0.9,0.4-1.5,1-1.9,1.8c-0.4,0.8-0.6,1.8-0.7,3c-0.1,1.2-0.1,2.6-0.1,4.3V428.3z"/>
					<path class="st0" d="M295.3,439.9l-48.8-64.2v50.1c0,1.7,0.1,3.2,0.4,4.6c0.3,1.4,0.8,2.6,1.5,3.6c0.7,1,1.8,1.8,3,2.4
						c1.3,0.6,3,0.9,5.1,0.9v1.2h-22v-1.2c2.1,0,3.8-0.3,5.1-0.9c1.3-0.6,2.3-1.4,3-2.4c0.7-1,1.2-2.2,1.5-3.6
						c0.3-1.4,0.4-2.9,0.4-4.6v-52.5l-3.4-4.5c-0.6-0.8-1.3-1.4-2.2-1.7c-0.8-0.3-2-0.5-3.6-0.5v-1.2H248l45.5,59.9V378
						c0-1.7-0.1-3.2-0.4-4.6c-0.3-1.4-0.8-2.6-1.5-3.6c-0.7-1-1.8-1.8-3-2.4c-1.3-0.6-3-0.8-5.1-0.8v-1.2h22v1.2
						c-2.1,0-3.8,0.3-5.1,0.8c-1.3,0.6-2.3,1.3-3,2.4c-0.7,1-1.2,2.2-1.5,3.6c-0.3,1.4-0.4,3-0.4,4.6V439.9z"/>
					<path class="st0" d="M314.2,437.9c1.6,0,2.8-0.2,3.7-0.6c0.9-0.4,1.5-1,1.9-1.8c0.4-0.8,0.6-1.8,0.7-3c0.1-1.2,0.1-2.6,0.1-4.3
						v-52.1c0-1.7,0-3.1-0.1-4.3c-0.1-1.2-0.3-2.2-0.7-3c-0.4-0.8-1-1.4-1.9-1.8c-0.9-0.4-2.1-0.6-3.7-0.6v-1.2h20.1
						c15.5,0,27.2,2.9,35,8.8c7.8,5.8,11.7,14.4,11.7,25.6c0,5.7-1,11-3,15.8c-2,4.8-4.8,9-8.4,12.5c-3.6,3.5-7.8,6.2-12.8,8.1
						c-5,1.9-10.4,2.9-16.3,2.9h-26.3V437.9z M334,367.2c-1.5,0-2.7,0.2-3.6,0.6c-0.8,0.4-1.4,1-1.8,1.8c-0.4,0.8-0.6,1.8-0.6,3
						c-0.1,1.2-0.1,2.6-0.1,4.3v50.8c0,1.7,0,3.1,0.1,4.3c0.1,1.2,0.3,2.2,0.7,3c0.4,0.8,1,1.4,1.9,1.8c0.9,0.4,2.1,0.6,3.7,0.6h6.4
						c5,0,9.5-0.7,13.4-2.2c4-1.4,7.3-3.5,10.1-6.3c2.8-2.7,4.9-6.1,6.3-10c1.4-3.9,2.2-8.4,2.2-13.3c0-5.7-0.9-10.8-2.8-15.5
						c-1.9-4.7-4.5-8.7-7.9-12.1c-3.4-3.4-7.5-6-12.2-7.9C345,368.2,339.8,367.2,334,367.2z"/>
					<path class="st0" d="M404.9,428.3c0,1.7,0,3.1,0.1,4.3c0.1,1.2,0.3,2.2,0.7,3c0.4,0.8,1,1.4,1.9,1.8c0.9,0.4,2.1,0.6,3.7,0.6
						v1.2h-20.1v-1.2c1.6,0,2.8-0.2,3.7-0.6c0.9-0.4,1.5-1,1.9-1.8c0.4-0.8,0.6-1.8,0.7-3c0.1-1.2,0.1-2.6,0.1-4.3v-52.1
						c0-1.7,0-3.1-0.1-4.3c-0.1-1.2-0.3-2.2-0.7-3c-0.4-0.8-1-1.4-1.9-1.8c-0.9-0.4-2.1-0.6-3.7-0.6v-1.2h20.1v1.2
						c-1.6,0-2.8,0.2-3.7,0.6c-0.9,0.4-1.5,1-1.9,1.8c-0.4,0.8-0.6,1.8-0.7,3c-0.1,1.2-0.1,2.6-0.1,4.3V428.3z"/>
					<path class="st0" d="M555.2,439.9l-48.8-64.2v50.1c0,1.7,0.1,3.2,0.4,4.6c0.3,1.4,0.8,2.6,1.5,3.6c0.7,1,1.8,1.8,3,2.4
						c1.3,0.6,3,0.9,5.1,0.9v1.2h-22v-1.2c2.1,0,3.8-0.3,5.1-0.9c1.3-0.6,2.3-1.4,3-2.4c0.7-1,1.2-2.2,1.5-3.6
						c0.3-1.4,0.4-2.9,0.4-4.6v-52.5l-3.4-4.5c-0.6-0.8-1.3-1.4-2.2-1.7c-0.8-0.3-2-0.5-3.6-0.5v-1.2h12.5l45.5,59.9V378
						c0-1.7-0.1-3.2-0.4-4.6c-0.3-1.4-0.8-2.6-1.5-3.6c-0.7-1-1.8-1.8-3-2.4c-1.3-0.6-3-0.8-5.1-0.8v-1.2h22v1.2
						c-2.1,0-3.8,0.3-5.1,0.8c-1.3,0.6-2.3,1.3-3,2.4c-0.7,1-1.2,2.2-1.5,3.6c-0.3,1.4-0.4,3-0.4,4.6V439.9z"/>
				</g>
				<path class="st0" d="M486.3,437.9c-0.2,0.1-0.5,0.1-0.9,0.1c-1.4,0-2.6-0.6-3.9-1.7c-1.2-1.1-2.4-2.5-3.5-4.2
					c-1.1-1.7-2.2-3.7-3.1-5.8c-1-2.2-1.9-4.3-2.7-6.4c-0.8-2.1-1.6-4.1-2.2-6c-0.6-1.9-1.2-3.4-1.7-4.6l-12.3-32
					c-0.7-1.7-1.3-3.4-1.8-4.9c-0.6-1.5-1.2-2.9-2.1-4c-0.8-1.1-1.9-2-3.2-2.7c-1.3-0.7-3.1-1-5.2-1c-1.8,0-3.6,0.3-5.5,0.9
					c-1.9,0.6-3.6,1.5-5.2,2.6l0.6,1c0.7-0.6,1.6-1,2.7-1.4c1-0.4,2-0.6,2.9-0.6c1.2,0,2.2,0.4,3.2,1.1c1,0.7,1.8,1.6,2.5,2.6
					c0.7,1,1.4,2.1,1.9,3.3c0.6,1.2,1,2.2,1.4,3.2l-15.2,49.2c-0.5,1.6-1,3.1-1.7,4.5c-0.6,1.4-1.4,2.6-2.4,3.6
					c-1,1-2.1,1.9-3.6,2.4c-1.4,0.6-3.2,0.9-5.3,0.9v1.2h22v-1.2c-2.1,0-3.7-0.3-4.9-0.9c-1.2-0.6-2-1.4-2.5-2.4
					c-0.5-1-0.7-2.3-0.6-3.6c0.1-1.4,0.4-2.9,0.8-4.5l2.8-9.3l0.5-1.6l11.2-35.6l13.1,35.6l0.6,1.6l1.7,4.6
					c1.6,4.6,3.1,8.1,4.5,10.5c1.4,2.4,2.8,4.3,4.2,5.5c1,0.9,2,1.5,3.2,1.8c1.1,0.3,2.5,0.5,4.2,0.5c2,0,4.1-0.3,6.1-0.9
					L486.3,437.9z"/>
				<path class="st0" d="M635.8,437.9c-0.2,0.1-0.5,0.1-0.9,0.1c-1.4,0-2.6-0.6-3.9-1.7c-1.2-1.1-2.4-2.5-3.5-4.2
					c-1.1-1.7-2.2-3.7-3.1-5.8c-1-2.2-1.9-4.3-2.7-6.4c-0.8-2.1-1.6-4.1-2.2-6c-0.6-1.9-1.2-3.4-1.7-4.6l-12.3-32
					c-0.7-1.7-1.3-3.4-1.8-4.9c-0.6-1.5-1.2-2.9-2.1-4c-0.8-1.1-1.9-2-3.2-2.7c-1.3-0.7-3.1-1-5.2-1c-1.8,0-3.6,0.3-5.5,0.9
					c-1.9,0.6-3.6,1.5-5.2,2.6l0.6,1c0.7-0.6,1.6-1,2.7-1.4c1-0.4,2-0.6,2.9-0.6c1.2,0,2.2,0.4,3.2,1.1c1,0.7,1.8,1.6,2.5,2.6
					c0.7,1,1.4,2.1,1.9,3.3c0.6,1.2,1,2.2,1.4,3.2l-15.2,49.2c-0.5,1.6-1,3.1-1.7,4.5c-0.6,1.4-1.4,2.6-2.4,3.6
					c-1,1-2.1,1.9-3.6,2.4c-1.4,0.6-3.2,0.9-5.3,0.9v1.2h22v-1.2c-2.1,0-3.7-0.3-4.9-0.9c-1.2-0.6-2-1.4-2.5-2.4
					c-0.5-1-0.7-2.3-0.6-3.6c0.1-1.4,0.4-2.9,0.8-4.5l2.8-9.3l0.5-1.6l11.2-35.6l13.1,35.6l0.6,1.6h0l1.7,4.6
					c1.6,4.6,3.1,8.1,4.5,10.5c1.4,2.4,2.8,4.3,4.2,5.5c1,0.9,2,1.5,3.2,1.8c1.1,0.3,2.5,0.5,4.2,0.5c2,0,4.1-0.3,6.1-0.9
					L635.8,437.9z"/>
				<path class="st0" d="M457.1,411.4c-4.3-1.9-5.5-3.4-7.1-8.4c-1.6,5.1-2.8,6.6-7.1,8.4c4.3,1.9,5.5,3.4,7.1,8.4
					C451.6,414.8,452.8,413.3,457.1,411.4z"/>
				<path class="st0" d="M606.4,411.4c-4.3-1.9-5.5-3.4-7.1-8.4c-1.6,5.1-2.8,6.6-7.1,8.4c4.3,1.9,5.5,3.4,7.1,8.4
					C600.9,414.8,602.1,413.3,606.4,411.4z"/>
			</g>
		</g>
		<g>
			<polygon class="st0" points="301.3,463.1 293,477.5 284.7,463.1 282.2,463.1 282.2,484.3 285.2,484.3 285.2,469.7 292.1,481.7 
				293.8,481.7 300.7,469.7 300.8,484.3 303.8,484.3 303.7,463.1 			"/>
			<polygon class="st0" points="314.5,475 324.9,475 324.9,472.1 314.5,472.1 314.5,466 326.2,466 326.2,463.1 311.4,463.1 
				311.4,484.3 326.6,484.3 326.6,481.4 314.5,481.4 			"/>
			<path class="st0" d="M347.8,474.9c0.9-1.2,1.4-2.7,1.4-4.4c0-2.3-0.8-4.2-2.4-5.5c-1.5-1.3-3.7-1.9-6.3-1.9h-7.8v21.2h3v-6.4h4.8
				c0.5,0,1,0,1.5-0.1l4.6,6.5h3.6L345,477C346.2,476.5,347.1,475.8,347.8,474.9z M346.1,470.5c0,1.4-0.5,2.6-1.4,3.3
				c-1,0.8-2.4,1.2-4.3,1.2h-4.8V466h4.8c1.9,0,3.3,0.4,4.3,1.2C345.7,467.9,346.1,469,346.1,470.5z"/>
			<path class="st0" d="M369.9,479.4c-1.4,1.4-3.3,2.1-5.5,2.1c-1.5,0-2.9-0.3-4.1-1c-1.2-0.7-2.2-1.6-2.9-2.8c-0.7-1.2-1-2.5-1-4
				c0-1.5,0.4-2.8,1-4c0.7-1.2,1.7-2.1,2.9-2.8c1.2-0.7,2.6-1,4.1-1c2.2,0,4.1,0.7,5.5,2.1l0.6,0.6l2-2l-0.5-0.6
				c-0.9-1-2-1.7-3.4-2.2c-1.3-0.5-2.7-0.7-4.2-0.7c-2.1,0-3.9,0.5-5.6,1.4c-1.7,0.9-3,2.2-3.9,3.9c-1,1.6-1.4,3.5-1.4,5.5
				c0,2,0.5,3.9,1.4,5.5c1,1.6,2.3,2.9,3.9,3.9c1.7,0.9,3.5,1.4,5.6,1.4c1.5,0,2.9-0.3,4.2-0.8c1.3-0.5,2.4-1.3,3.4-2.2l0.5-0.6
				l-2-2.1L369.9,479.4z"/>
			<polygon class="st0" points="392.3,472.1 380.8,472.1 380.8,463.1 377.8,463.1 377.8,484.3 380.8,484.3 380.8,475 392.3,475 
				392.3,484.3 395.4,484.3 395.4,463.1 392.3,463.1 			"/>
			<path class="st0" d="M411.5,463.1h-2.5l-9.2,20.1l-0.5,1.1h3.3l2.5-5.5h10.4l2.5,5.5h3.3l-9.5-20.8L411.5,463.1z M414.2,476h-7.8
				l3.9-8.6L414.2,476z"/>
			<polygon class="st0" points="439.8,478.6 427.9,463.4 427.6,463.1 425.3,463.1 425.3,484.3 428.3,484.3 428.3,468.8 440.2,484 
				440.5,484.3 442.8,484.3 442.8,463.1 439.8,463.1 			"/>
			<path class="st0" d="M464.9,464.4c-1.7-0.9-3.6-1.4-5.8-1.4h-8.6v21.2h8.6c2.2,0,4.1-0.5,5.8-1.4c1.7-0.9,3-2.2,4-3.8
				c0.9-1.6,1.4-3.4,1.4-5.5c0-2-0.5-3.9-1.4-5.5C467.9,466.6,466.6,465.3,464.9,464.4z M467.3,473.7c0,1.5-0.3,2.9-1,4
				c-0.7,1.2-1.6,2.1-2.9,2.7c-1.3,0.7-2.8,1-4.4,1h-5.4V466h5.4c1.7,0,3.2,0.3,4.4,1c1.2,0.6,2.2,1.6,2.9,2.7
				C466.9,470.8,467.3,472.2,467.3,473.7z"/>
			<rect x="476.1" y="463.1" class="st0" width="3" height="21.2"/>
			<path class="st0" d="M497,473.4c-0.9-0.3-2.1-0.7-3.5-1.1c-1.3-0.3-2.2-0.6-3-0.9c-0.6-0.2-1.2-0.6-1.6-1
				c-0.4-0.4-0.5-0.9-0.5-1.5c0-0.9,0.3-1.6,1.1-2.2c0.8-0.6,2-0.9,3.6-0.9c0.8,0,1.7,0.1,2.6,0.4c0.9,0.3,1.7,0.6,2.4,1.1l0.8,0.5
				l1.2-2.6l-0.5-0.4c-0.8-0.6-1.8-1.1-2.9-1.4c-1.1-0.3-2.3-0.5-3.4-0.5c-1.7,0-3.1,0.3-4.2,0.8c-1.2,0.5-2.1,1.3-2.7,2.2
				c-0.6,0.9-0.9,1.9-0.9,3c0,1.4,0.4,2.5,1.1,3.3c0.7,0.8,1.5,1.4,2.5,1.8c0.9,0.3,2.1,0.7,3.6,1.1c1.2,0.3,2.2,0.6,2.9,0.8
				c0.6,0.2,1.2,0.6,1.6,1c0.4,0.4,0.5,0.9,0.5,1.5c0,0.9-0.4,1.6-1.1,2.1c-0.8,0.6-2.1,0.9-3.8,0.9c-1.2,0-2.3-0.2-3.4-0.6
				c-1.1-0.4-1.9-0.9-2.5-1.6l-0.7-0.8l-1.5,2.5l0.4,0.4c0.8,0.9,1.9,1.6,3.3,2.1c1.4,0.5,2.9,0.8,4.4,0.8c1.7,0,3.1-0.3,4.2-0.8
				c1.2-0.5,2.1-1.3,2.7-2.2c0.6-0.9,0.9-1.9,0.9-3c0-1.4-0.4-2.5-1.1-3.3C498.8,474.4,498,473.8,497,473.4z"/>
			<rect x="506.3" y="463.1" class="st0" width="3" height="21.2"/>
			<polygon class="st0" points="531.6,478.6 519.7,463.4 519.4,463.1 517.1,463.1 517.1,484.3 520.1,484.3 520.1,468.8 532,484 
				532.3,484.3 534.6,484.3 534.6,463.1 531.6,463.1 			"/>
			<path class="st0" d="M556.3,480.1c-1.3,0.9-2.9,1.4-4.8,1.4c-1.5,0-2.9-0.3-4.2-1c-1.2-0.7-2.2-1.6-2.9-2.8
				c-0.7-1.2-1.1-2.5-1.1-4c0-1.5,0.4-2.8,1-4c0.7-1.2,1.7-2.1,2.9-2.8c1.2-0.7,2.6-1,4.2-1c1.1,0,2.2,0.2,3.1,0.5
				c0.9,0.3,1.7,0.9,2.5,1.6l0.6,0.6l2-2.1l-0.5-0.5c-0.9-1-2.1-1.7-3.4-2.2c-1.3-0.5-2.7-0.7-4.3-0.7c-2.1,0-4,0.5-5.7,1.4
				c-1.7,0.9-3,2.2-4,3.9c-1,1.6-1.4,3.5-1.4,5.5c0,2,0.5,3.9,1.4,5.5c1,1.6,2.3,2.9,4,3.9c1.7,0.9,3.6,1.4,5.6,1.4
				c1.4,0,2.8-0.2,4.1-0.7c1.3-0.5,2.5-1.2,3.5-2.1l0.2-0.2V473h-3V480.1z"/>
		</g>
	</g>
</g>
</svg>
